# xmcd
#
# Track frame offsets:
# 150
# 19920
# 34164
# 50236
# 66966
# 81912
# 96432
# 114069
# 128727
# 150527
# 172261
# 192738
# 206982
# 223562
# 240312
# 255194
# 269714
# 287340
# 301967
# 323850
#
# Disc length: 4612 seconds
#
#
# Revision: 0
# Processed by: cddbd v1.5.2PL0 Copyright (c) Steve Scherf et al.
# Submitted via: FreeRIP 2.945 
#
DISCID=29120214
DTITLE=Anderlindo José - Corinhos de Fogo e Poder Vol 2
DYEAR=1900
DGENRE=Gospel
TTITLE0=Pode Clamar, Pode Pedir
TTITLE1=Povo de Deus Dai Glória
TTITLE2=O Varão Está Aqui
TTITLE3=Mexer Com Crente é Um Perigo
TTITLE4=A Vitória é Nossa
TTITLE5=Tem Anjos Aqui
TTITLE6=Deus Poderoso
TTITLE7=Cadê o Crente Que Dá Glória
TTITLE8=Jóia Rara
TTITLE9=Não Vai Naufragar
TTITLE10=Playback 01
TTITLE11=Playback 02
TTITLE12=Playback 03
TTITLE13=Playback 04
TTITLE14=Playback 05
TTITLE15=Playback 06
TTITLE16=Playback 07
TTITLE17=Playback 08
TTITLE18=Playback 09
TTITLE19=Playback 10
EXTD=
EXTT0=
EXTT1=
EXTT2=
EXTT3=
EXTT4=
EXTT5=
EXTT6=
EXTT7=
EXTT8=
EXTT9=
EXTT10=
EXTT11=
EXTT12=
EXTT13=
EXTT14=
EXTT15=
EXTT16=
EXTT17=
EXTT18=
EXTT19=
PLAYORDER=
